<svg width="16" height="15" viewBox="0 0 16 15" fill="none" xmlns="http://www.w3.org/2000/svg">
<path d="M6.28867 0.9255C6.94767 -0.3085 8.71567 -0.3085 9.37467 0.9255L15.4567 12.3035C15.5992 12.5701 15.6702 12.8691 15.6628 13.1713C15.6554 13.4735 15.5699 13.7687 15.4145 14.028C15.2591 14.2873 15.0392 14.502 14.7761 14.651C14.5131 14.8001 14.216 14.8784 13.9137 14.8785H1.74967C1.44736 14.8784 1.15021 14.8001 0.887198 14.651C0.624182 14.502 0.404264 14.2873 0.248873 14.028C0.0934829 13.7687 0.00792056 13.4735 0.000523976 13.1713C-0.00687261 12.8691 0.0641489 12.5701 0.206668 12.3035L6.28867 0.9255ZM8.05167 1.6325C8.03025 1.59281 7.99849 1.55966 7.95976 1.53655C7.92103 1.51344 7.87677 1.50124 7.83167 1.50124C7.78657 1.50124 7.74231 1.51344 7.70358 1.53655C7.66485 1.55966 7.63309 1.59281 7.61167 1.6325L1.52967 13.0105C1.50929 13.0486 1.49912 13.0912 1.50014 13.1344C1.50116 13.1776 1.51334 13.2197 1.53549 13.2568C1.55764 13.2938 1.58901 13.3245 1.62654 13.3459C1.66408 13.3672 1.7065 13.3784 1.74967 13.3785H13.9137C13.9568 13.3784 13.9993 13.3672 14.0368 13.3459C14.0743 13.3245 14.1057 13.2938 14.1278 13.2568C14.15 13.2197 14.1622 13.1776 14.1632 13.1344C14.1642 13.0912 14.154 13.0486 14.1337 13.0105L8.05167 1.6325ZM8.58167 5.6285V8.1285C8.58167 8.32741 8.50265 8.51818 8.362 8.65883C8.22134 8.79948 8.03058 8.8785 7.83167 8.8785C7.63276 8.8785 7.44199 8.79948 7.30134 8.65883C7.16069 8.51818 7.08167 8.32741 7.08167 8.1285V5.6285C7.08167 5.42959 7.16069 5.23882 7.30134 5.09817C7.44199 4.95752 7.63276 4.8785 7.83167 4.8785C8.03058 4.8785 8.22134 4.95752 8.362 5.09817C8.50265 5.23882 8.58167 5.42959 8.58167 5.6285ZM8.83167 10.8785C8.83167 11.1437 8.72631 11.3981 8.53877 11.5856C8.35124 11.7731 8.09688 11.8785 7.83167 11.8785C7.56645 11.8785 7.3121 11.7731 7.12456 11.5856C6.93703 11.3981 6.83167 11.1437 6.83167 10.8785C6.83167 10.6133 6.93703 10.3589 7.12456 10.1714C7.3121 9.98386 7.56645 9.8785 7.83167 9.8785C8.09688 9.8785 8.35124 9.98386 8.53877 10.1714C8.72631 10.3589 8.83167 10.6133 8.83167 10.8785Z" fill="#FF3737"/>
</svg>
