<svg width="10" height="10" viewBox="0 0 10 10" fill="none" xmlns="http://www.w3.org/2000/svg">
<path d="M4.9668 0C7.70955 0.000175736 9.93342 2.22404 9.93359 4.9668C9.93342 7.70955 7.70955 9.93342 4.9668 9.93359C2.22404 9.93342 0.000175733 7.70955 0 4.9668C0.000175962 2.22404 2.22404 0.000175964 4.9668 0ZM4.9668 1.59961C3.1077 1.59979 1.59979 3.1077 1.59961 4.9668C1.59979 6.8259 3.1077 8.33283 4.9668 8.33301C6.8259 8.33283 8.33283 6.8259 8.33301 4.9668C8.33283 3.1077 6.8259 1.59979 4.9668 1.59961ZM4.9707 5.83301C5.41228 5.83304 5.77016 6.19131 5.77051 6.63281C5.77051 7.07462 5.4125 7.43356 4.9707 7.43359H4.9668C4.52512 7.43342 4.16602 7.07453 4.16602 6.63281C4.16637 6.19139 4.52534 5.83318 4.9668 5.83301H4.9707ZM4.9668 2.5C5.40837 2.50018 5.76643 2.85824 5.7666 3.2998V4.9668C5.76643 5.40837 5.40837 5.76643 4.9668 5.7666C4.52523 5.76643 4.16619 5.40837 4.16602 4.9668V3.2998C4.16619 2.85824 4.52523 2.50018 4.9668 2.5Z" fill="#14AE5C"/>
</svg>
