<svg width="26" height="25" viewBox="0 0 26 25" fill="none" xmlns="http://www.w3.org/2000/svg">
<path d="M12.7162 17.8454H18.925C19.1668 17.8581 19.408 17.8101 19.6255 17.7059C19.843 17.6017 20.0297 17.4448 20.1679 17.2501C20.3061 17.0554 20.3911 16.8293 20.415 16.5933C20.4388 16.3573 20.4006 16.1193 20.3041 15.9019C19.9771 14.9314 18.6669 13.7653 18.6669 12.6195C18.6669 10.0751 18.6669 9.40571 17.3877 7.90933C16.9739 7.42669 16.4601 7.0357 15.8803 6.76228L15.1668 6.42311C15.0466 6.35263 14.9429 6.25818 14.8625 6.14592C14.782 6.03365 14.7266 5.90607 14.6997 5.77147C14.629 5.31784 14.3843 4.90766 14.0156 4.62447C13.6468 4.34127 13.1817 4.20633 12.7149 4.24714C12.2568 4.22056 11.8051 4.36196 11.4477 4.64377C11.0904 4.92558 10.853 5.32761 10.7819 5.77147C10.7495 5.91035 10.6865 6.04062 10.5973 6.15318C10.5081 6.26574 10.3949 6.35787 10.2656 6.42311L9.55206 6.76228C8.97176 7.03555 8.45747 7.42655 8.0433 7.90933C6.76417 9.40444 6.76417 10.0751 6.76417 12.6195C6.76417 13.7653 5.51357 14.8145 5.18665 15.8447C4.98817 16.4659 4.87919 17.8454 6.53584 17.8454H12.7162Z" stroke="white" stroke-width="1.4" stroke-linecap="round" stroke-linejoin="round"/>
<path d="M15.6909 17.8452C15.7047 18.4251 15.5371 18.9953 15.2106 19.4793C14.8842 19.9634 14.4144 20.3381 13.8643 20.5534C13.5002 20.6987 13.1093 20.7688 12.7162 20.7592C12.323 20.7677 11.9321 20.6981 11.5672 20.5547C11.2022 20.4113 10.8706 20.197 10.5925 19.9246C10.3144 19.6523 10.0955 19.3277 9.94906 18.9703C9.80258 18.6129 9.73153 18.2302 9.74021 17.8452" stroke="white" stroke-width="1.4" stroke-linecap="round" stroke-linejoin="round"/>
<path d="M16.9662 0.75H8.53378C4.23492 0.75 0.75 4.16232 0.75 8.37162V16.6284C0.75 20.8377 4.23492 24.25 8.53378 24.25H16.9662C21.2651 24.25 24.75 20.8377 24.75 16.6284V8.37162C24.75 4.16232 21.2651 0.75 16.9662 0.75Z" stroke="white" stroke-width="1.5"/>
</svg>
