<svg width="19" height="19" viewBox="0 0 19 19" fill="none" xmlns="http://www.w3.org/2000/svg">
<path d="M14.35 16.05C14.35 16.5009 14.5291 16.9333 14.8479 17.2521C15.1667 17.5709 15.5991 17.75 16.05 17.75C16.5009 17.75 16.9333 17.5709 17.2521 17.2521C17.5709 16.9333 17.75 16.5009 17.75 16.05C17.75 15.5991 17.5709 15.1667 17.2521 14.8479C16.9333 14.5291 16.5009 14.35 16.05 14.35C15.5991 14.35 15.1667 14.5291 14.8479 14.8479C14.5291 15.1667 14.35 15.5991 14.35 16.05ZM0.75 2.45C0.75 2.90087 0.929106 3.33327 1.24792 3.65208C1.56673 3.97089 1.99913 4.15 2.45 4.15C2.90087 4.15 3.33327 3.97089 3.65208 3.65208C3.97089 3.33327 4.15 2.90087 4.15 2.45C4.15 1.99913 3.97089 1.56673 3.65208 1.24792C3.33327 0.929107 2.90087 0.75 2.45 0.75C1.99913 0.75 1.56673 0.929107 1.24792 1.24792C0.929106 1.56673 0.75 1.99913 0.75 2.45Z" stroke="white" stroke-width="1.5" stroke-linejoin="round"/>
<path d="M10.95 16.0502H2.45005V7.5502M7.55005 2.4502H16.05V10.9502" stroke="white" stroke-width="1.5" stroke-linecap="round" stroke-linejoin="round"/>
</svg>
