<svg width="11" height="11" viewBox="0 0 11 11" fill="none" xmlns="http://www.w3.org/2000/svg">
<path d="M9.87537 3.63906C9.74644 3.51017 9.57161 3.43777 9.38931 3.43777C9.20701 3.43777 9.03217 3.51017 8.90324 3.63906L5.50012 7.04218L2.09699 3.63906C1.96733 3.51382 1.79367 3.44453 1.61341 3.44609C1.43315 3.44766 1.26071 3.51996 1.13324 3.64743C1.00578 3.7749 0.933473 3.94733 0.931906 4.12759C0.93034 4.30785 0.999636 4.48152 1.12487 4.61118L5.01406 8.50037C5.14298 8.62926 5.31782 8.70166 5.50012 8.70166C5.68242 8.70166 5.85726 8.62926 5.98618 8.50037L9.87537 4.61118C10.0043 4.48226 10.0767 4.30742 10.0767 4.12512C10.0767 3.94282 10.0043 3.76798 9.87537 3.63906Z" fill="white"/>
</svg>
