<svg width="28" height="28" viewBox="0 0 28 28" fill="none" xmlns="http://www.w3.org/2000/svg">
<path d="M24.3134 5.37827C23.7175 4.7821 23.01 4.30919 22.2313 3.98653C21.4526 3.66387 20.618 3.4978 19.7751 3.4978C18.9322 3.4978 18.0975 3.66387 17.3188 3.98653C16.5401 4.30919 15.8326 4.7821 15.2367 5.37827L14.0001 6.61493L12.7634 5.37827C11.5597 4.17463 9.92726 3.49843 8.22506 3.49843C6.52285 3.49843 4.89036 4.17463 3.68672 5.37827C2.48308 6.58191 1.80688 8.21439 1.80688 9.9166C1.80688 11.6188 2.48308 13.2513 3.68672 14.4549L14.0001 24.7683L24.3134 14.4549C24.9096 13.8591 25.3825 13.1515 25.7051 12.3728C26.0278 11.5941 26.1939 10.7595 26.1939 9.9166C26.1939 9.0737 26.0278 8.23905 25.7051 7.46035C25.3825 6.68165 24.9096 5.97415 24.3134 5.37827Z" stroke="#14AE5C" stroke-width="2" stroke-linecap="round" stroke-linejoin="round"/>
</svg>
