<svg width="9" height="9" viewBox="0 0 9 9" fill="none" xmlns="http://www.w3.org/2000/svg">
<g clip-path="url(#clip0_37_655)">
<path d="M6.957 3.41529C7.61325 3.63954 7.63312 4.54629 7.01662 4.81216L6.95662 4.83466L6.07162 5.13729C5.86866 5.20664 5.68293 5.31871 5.52697 5.46595C5.371 5.61318 5.24842 5.79215 5.1675 5.99079L5.13713 6.07216L4.83487 6.95716C4.61062 7.61341 3.70388 7.63329 3.438 7.01716L3.4155 6.95716L3.11287 6.07216C3.04357 5.86913 2.93151 5.68333 2.78428 5.52729C2.63704 5.37126 2.45805 5.24862 2.25937 5.16766L2.17838 5.13729L1.293 4.83504C0.63675 4.61079 0.616875 3.70404 1.233 3.43854L1.293 3.41529L2.178 3.11304C2.38103 3.04373 2.56683 2.93168 2.72287 2.78444C2.8789 2.6372 3.00154 2.45821 3.0825 2.25954L3.11287 2.17854L3.41512 1.29354C3.63938 0.636911 4.54613 0.617036 4.81163 1.23354L4.83487 1.29354L5.13713 2.17854C5.20648 2.3815 5.31855 2.56723 5.46579 2.7232C5.61302 2.87916 5.79199 3.00174 5.99063 3.08266L6.07162 3.11304L6.957 3.41529ZM8.25 7.12516C8.25 7.19532 8.23032 7.26406 8.1932 7.32359C8.15608 7.38312 8.103 7.43104 8.04 7.46191L7.99612 7.47991L7.61137 7.61116L7.48012 7.99629C7.45624 8.06659 7.41202 8.12822 7.35307 8.17337C7.29412 8.21852 7.22309 8.24515 7.14899 8.24989C7.07489 8.25463 7.00105 8.23726 6.93683 8.19999C6.87261 8.16272 6.8209 8.10723 6.78825 8.04054L6.77025 7.99629L6.639 7.61154L6.25388 7.48029C6.18359 7.45636 6.12199 7.4121 6.07688 7.35313C6.03177 7.29416 6.00518 7.22312 6.00048 7.14903C5.99578 7.07493 6.01318 7.0011 6.05048 6.9369C6.08778 6.87271 6.1433 6.82103 6.21 6.78841L6.25388 6.77041L6.63863 6.63916L6.76987 6.25404C6.79376 6.18373 6.83798 6.1221 6.89693 6.07695C6.95588 6.0318 7.02691 6.00517 7.10101 6.00043C7.17511 5.99569 7.24895 6.01306 7.31317 6.05033C7.37739 6.0876 7.4291 6.1431 7.46175 6.20979L7.47975 6.25404L7.611 6.63879L7.99612 6.77004C8.07022 6.79532 8.13453 6.84316 8.18006 6.90685C8.22559 6.97054 8.25005 7.04687 8.25 7.12516Z" fill="#DBE4FF"/>
</g>
<defs>
<clipPath id="clip0_37_655">
<rect width="9" height="9" fill="white" transform="matrix(0 1 -1 0 9 0)"/>
</clipPath>
</defs>
</svg>
