<svg width="16" height="17" viewBox="0 0 16 17" fill="none" xmlns="http://www.w3.org/2000/svg">
<path d="M13.0367 14.0175L8.84629 9.81224C8.51372 10.0792 8.13127 10.2906 7.69893 10.4464C7.26659 10.6021 6.80653 10.68 6.31876 10.68C5.11043 10.68 4.08778 10.26 3.25081 9.42008C2.41384 8.58014 1.99536 7.55385 1.99536 6.34122C1.99536 5.12859 2.41384 4.1023 3.25081 3.26236C4.08778 2.42241 5.11043 2.00244 6.31876 2.00244C7.5271 2.00244 8.54975 2.42241 9.38672 3.26236C10.2237 4.1023 10.6422 5.12859 10.6422 6.34122C10.6422 6.83072 10.5646 7.29241 10.4094 7.72629C10.2542 8.16017 10.0435 8.54398 9.77748 8.87773L13.9679 13.083L13.0367 14.0175ZM6.31876 9.34499C7.15019 9.34499 7.8569 9.05295 8.43889 8.46889C9.02089 7.88482 9.31189 7.1756 9.31189 6.34122C9.31189 5.50684 9.02089 4.79762 8.43889 4.21355C7.8569 3.62948 7.15019 3.33745 6.31876 3.33745C5.48734 3.33745 4.78063 3.62948 4.19863 4.21355C3.61664 4.79762 3.32564 5.50684 3.32564 6.34122C3.32564 7.1756 3.61664 7.88482 4.19863 8.46889C4.78063 9.05295 5.48734 9.34499 6.31876 9.34499Z" fill="#FEF7FF"/>
</svg>
