<svg width="10" height="9" viewBox="0 0 10 9" fill="none" xmlns="http://www.w3.org/2000/svg">
<g clip-path="url(#clip0_37_768)">
<path d="M7.73008 3.41529C8.45925 3.63954 8.48133 4.54629 7.79633 4.81216L7.72966 4.83466L6.74633 5.13729C6.52082 5.20664 6.31445 5.31871 6.14116 5.46595C5.96786 5.61318 5.83166 5.79215 5.74175 5.99079L5.708 6.07216L5.37216 6.95716C5.123 7.61341 4.1155 7.63329 3.82008 7.01716L3.79508 6.95716L3.45883 6.07216C3.38182 5.86913 3.25732 5.68333 3.09372 5.52729C2.93013 5.37126 2.73124 5.24862 2.5105 5.16766L2.4205 5.13729L1.43675 4.83504C0.707581 4.61079 0.685497 3.70404 1.37008 3.43854L1.43675 3.41529L2.42008 3.11304C2.64567 3.04373 2.85212 2.93168 3.02549 2.78444C3.19886 2.6372 3.33512 2.45821 3.42508 2.25954L3.45883 2.17854L3.79466 1.29354C4.04383 0.636911 5.05133 0.617036 5.34633 1.23354L5.37216 1.29354L5.708 2.17854C5.78506 2.3815 5.90958 2.56723 6.07318 2.7232C6.23677 2.87916 6.43563 3.00174 6.65633 3.08266L6.74633 3.11304L7.73008 3.41529ZM9.16675 7.12516C9.16675 7.19532 9.14488 7.26406 9.10363 7.32359C9.06239 7.38312 9.00341 7.43104 8.93341 7.46191L8.88466 7.47991L8.45716 7.61116L8.31133 7.99629C8.28479 8.06659 8.23566 8.12822 8.17016 8.17337C8.10466 8.21852 8.02574 8.24515 7.94341 8.24989C7.86107 8.25463 7.77903 8.23726 7.70767 8.19999C7.63631 8.16272 7.57886 8.10723 7.54258 8.04054L7.52258 7.99629L7.37675 7.61154L6.94883 7.48029C6.87074 7.45636 6.80229 7.4121 6.75217 7.35313C6.70205 7.29416 6.6725 7.22312 6.66728 7.14903C6.66206 7.07493 6.6814 7.0011 6.72284 6.9369C6.76428 6.87271 6.82597 6.82103 6.90008 6.78841L6.94883 6.77041L7.37633 6.63916L7.52216 6.25404C7.5487 6.18373 7.59784 6.1221 7.66334 6.07695C7.72884 6.0318 7.80776 6.00517 7.89009 6.00043C7.97242 5.99569 8.05447 6.01306 8.12583 6.05033C8.19718 6.0876 8.25464 6.1431 8.29091 6.20979L8.31091 6.25404L8.45675 6.63879L8.88466 6.77004C8.96699 6.79532 9.03845 6.84316 9.08904 6.90685C9.13963 6.97054 9.1668 7.04687 9.16675 7.12516Z" fill="#DBE4FF"/>
</g>
<defs>
<clipPath id="clip0_37_768">
<rect width="9" height="10" fill="white" transform="matrix(0 1 -1 0 10 0)"/>
</clipPath>
</defs>
</svg>
