<svg width="25" height="25" viewBox="0 0 25 25" fill="none" xmlns="http://www.w3.org/2000/svg">
<g clip-path="url(#clip0_89_166)">
<path d="M17.7084 21.875V19.7917C17.7084 18.6866 17.2694 17.6268 16.488 16.8454C15.7066 16.064 14.6468 15.625 13.5417 15.625H5.20842C4.10335 15.625 3.04354 16.064 2.26214 16.8454C1.48073 17.6268 1.04175 18.6866 1.04175 19.7917V21.875M23.9584 21.875V19.7917C23.9577 18.8685 23.6505 17.9716 23.0848 17.242C22.5192 16.5124 21.7273 15.9912 20.8334 15.7604M16.6667 3.26042C17.563 3.4899 18.3574 4.01115 18.9247 4.74199C19.492 5.47283 19.7999 6.3717 19.7999 7.29687C19.7999 8.22205 19.492 9.12092 18.9247 9.85176C18.3574 10.5826 17.563 11.1039 16.6667 11.3333M13.5417 7.29167C13.5417 9.59285 11.6763 11.4583 9.37508 11.4583C7.0739 11.4583 5.20842 9.59285 5.20842 7.29167C5.20842 4.99048 7.0739 3.125 9.37508 3.125C11.6763 3.125 13.5417 4.99048 13.5417 7.29167Z" stroke="#14AE5C" stroke-width="2" stroke-linecap="round" stroke-linejoin="round"/>
</g>
<defs>
<clipPath id="clip0_89_166">
<rect width="25" height="25" fill="white"/>
</clipPath>
</defs>
</svg>
