<svg width="16" height="16" viewBox="0 0 16 16" fill="none" xmlns="http://www.w3.org/2000/svg">
<path d="M8 14.0001C7.53333 14.0001 7.13889 13.839 6.81667 13.5167C6.49444 13.1945 6.33333 12.8001 6.33333 12.3334C6.33333 11.8667 6.49444 11.4723 6.81667 11.1501C7.13889 10.8279 7.53333 10.6667 8 10.6667C8.46667 10.6667 8.86111 10.8279 9.18333 11.1501C9.50556 11.4723 9.66667 11.8667 9.66667 12.3334C9.66667 12.8001 9.50556 13.1945 9.18333 13.5167C8.86111 13.839 8.46667 14.0001 8 14.0001ZM4.23333 10.2334L2.83333 8.80008C3.48889 8.14453 4.25833 7.62508 5.14167 7.24175C6.025 6.85841 6.97778 6.66675 8 6.66675C9.02222 6.66675 9.975 6.86119 10.8583 7.25008C11.7417 7.63897 12.5111 8.16675 13.1667 8.83341L11.7667 10.2334C11.2778 9.74453 10.7111 9.36119 10.0667 9.08341C9.42222 8.80564 8.73333 8.66675 8 8.66675C7.26667 8.66675 6.57778 8.80564 5.93333 9.08341C5.28889 9.36119 4.72222 9.74453 4.23333 10.2334ZM1.4 7.40008L0 6.00008C1.02222 4.95564 2.21667 4.13897 3.58333 3.55008C4.95 2.96119 6.42222 2.66675 8 2.66675C9.57778 2.66675 11.05 2.96119 12.4167 3.55008C13.7833 4.13897 14.9778 4.95564 16 6.00008L14.6 7.40008C13.7444 6.54453 12.7528 5.87508 11.625 5.39175C10.4972 4.90841 9.28889 4.66675 8 4.66675C6.71111 4.66675 5.50278 4.90841 4.375 5.39175C3.24722 5.87508 2.25556 6.54453 1.4 7.40008Z" fill="#14AE5C"/>
</svg>
